PathFileType	4	(X/Y/Z)	C:\Users\dbl\Desktop\20210112\20210112\bx_n_0_503.trc
DataRate	CameraRate	NumFrames	NumMarkers	Units	OrigDataRate	OrigDataStartFrame	OrigNumFrames
50.00	50.00	       5	43	mm	50.00	125	       333
Frame#	Time	Top.Head			R.Acromium			L.Acromium			Sternum			R.ASIS			L.ASIS			V.Sacral			R.Thigh.Upper			R.Thigh.Front			R.Thigh.Rear			R.Knee.Lat			R.Knee.Med			R.Shank.Upper			R.Shank.Front			R.Shank.Rear			R.Ankle.Lat			R.Midfoot.Lat			R.Toe.Lat			R.Toe.Tip			R.Toe.Med			R.Ankle.Med			R.Midfoot.Sup			R.Heel			L.Thigh.Upper			L.Thigh.Front			L.Thigh.Rear			L.Knee.Lat			L.Knee.Med			L.Shank.Upper			L.Shank.Front			L.Shank.Rear			L.Ankle.Lat			L.Midfoot.Lat			L.Toe.Lat			L.Toe.Tip			L.Toe.Med			L.Ankle.Med			L.Midfoot.Sup			L.Heel			origin1 front left			origin2 front right			origin 3 back right			origin 4 back leftt			
		X1	Y1	Z1	X2	Y2	Z2	X3	Y3	Z3	X4	Y4	Z4	X5	Y5	Z5	X6	Y6	Z6	X7	Y7	Z7	X8	Y8	Z8	X9	Y9	Z9	X10	Y10	Z10	X11	Y11	Z11	X12	Y12	Z12	X13	Y13	Z13	X14	Y14	Z14	X15	Y15	Z15	X16	Y16	Z16	X17	Y17	Z17	X18	Y18	Z18	X19	Y19	Z19	X20	Y20	Z20	X21	Y21	Z21	X22	Y22	Z22	X23	Y23	Z23	X24	Y24	Z24	X25	Y25	Z25	X26	Y26	Z26	X27	Y27	Z27	X28	Y28	Z28	X29	Y29	Z29	X30	Y30	Z30	X31	Y31	Z31	X32	Y32	Z32	X33	Y33	Z33	X34	Y34	Z34	X35	Y35	Z35	X36	Y36	Z36	X37	Y37	Z37	X38	Y38	Z38	X39	Y39	Z39	X40	Y40	Z40	X41	Y41	Z41	X42	Y42	Z42	X43	Y43	Z43	

125	2.480	-280.96268	126.48154	1673.18140	-423.48773	-65.95277	1411.92163	-441.24805	290.10181	1408.66040	-482.70261	108.72711	1208.55298	-672.91748	-7.01692	1026.84656	-670.96741	237.72833	1042.12781	-859.79938	95.36200	1094.69556	-753.33008	-73.04722	873.57910	-668.52179	-10.04218	805.85461	-760.07715	-64.83361	755.66211	-763.95209	-37.03770	613.53235	-745.28387	72.26783	571.07123	-766.05096	-34.60701	567.73145	-710.86432	13.32434	524.73798	-799.21143	-47.32766	483.76801	-762.12323	-22.44308	205.73656	-648.48102	-68.40715	160.78453	-606.12091	-72.56471	157.66141	-549.27979	-22.66355	162.66286	-601.23895	27.79708	167.88602	-723.90546	66.39794	219.35619	-675.56421	51.43058	161.34532	-794.42334	37.14223	175.40549	-764.14117	285.41650	874.46826	-663.44092	218.26237	796.19073	-756.91669	276.08606	741.55634	-780.66626	255.83392	637.33813	-740.97601	143.11084	573.88025	-770.57367	249.03519	572.80029	-715.53986	204.03362	537.28479	-800.26318	262.76785	495.53265	-766.56384	229.21410	204.62427	-652.13458	291.58871	156.79156	-615.02441	297.31598	158.52013	-552.95398	242.13451	165.02054	-589.20453	207.34663	173.36145	-717.36749	151.90059	219.95146	-675.58862	167.39224	159.34726	-796.27069	182.19569	183.80269	-528.06909	303.75491	146.38507	-517.84570	-72.95018	143.17821	-875.88623	-78.68638	141.17178	-882.33545	296.16324	144.62126	
126	2.500	-275.65256	126.55425	1666.71729	-419.72260	-65.86165	1406.74292	-437.27759	290.05508	1403.31384	-481.63968	108.62723	1203.92078	-674.51520	-7.12632	1025.95313	-672.42163	237.55594	1041.44568	-860.88849	95.18851	1095.01563	-754.96027	-73.30029	873.50208	-670.03894	-10.11946	805.85797	-761.45508	-64.98210	755.53827	-764.85168	-37.10119	613.50848	-746.08667	72.19582	570.96973	-766.82605	-34.70965	567.61859	-711.58820	13.35968	524.79468	-799.79468	-47.40145	483.64227	-762.15033	-22.47027	205.72119	-648.48926	-68.40901	160.77243	-606.09698	-72.65125	157.62436	-549.35553	-22.59955	162.62032	-601.29254	27.83859	167.90424	-723.94257	66.39553	219.36989	-675.60376	51.43767	161.39821	-794.44690	37.10453	175.33264	-765.69708	285.10248	874.27692	-664.89624	217.86661	796.14722	-758.04956	276.12411	741.48047	-781.61877	255.76434	637.21875	-741.92499	142.88522	573.80438	-771.41931	249.07707	572.64673	-716.46301	203.97327	537.21814	-800.98627	262.76389	495.31662	-766.57959	229.22993	204.61649	-652.12952	291.57581	156.80301	-615.02344	297.23773	158.50992	-552.95337	242.08736	165.01515	-589.04932	207.27122	173.32065	-717.43506	151.89038	219.94725	-675.59857	167.46927	159.30559	-796.19525	182.24704	183.73141	-528.07715	303.74033	146.37572	-517.87097	-72.95371	143.14085	-875.88361	-78.67852	141.13321	-882.43488	296.15680	144.64513	
127	2.520	-270.47531	126.71404	1660.23987	-416.10815	-65.78235	1401.55493	-433.48615	289.99957	1398.00134	-480.71198	108.52433	1199.34937	-675.97632	-7.16031	1024.96057	-673.92352	237.42200	1040.73462	-861.95544	94.96013	1095.38440	-756.54419	-73.42986	873.29077	-671.50769	-10.13793	805.84521	-762.69507	-65.17652	755.34277	-765.59094	-37.23167	613.47229	-746.88812	72.12470	570.86292	-767.52466	-34.83730	567.43793	-712.30640	13.35796	524.77362	-800.37067	-47.58762	483.55444	-762.18365	-22.56221	205.72682	-648.49542	-68.42610	160.75533	-606.00470	-72.72326	157.62152	-549.43237	-22.53980	162.59990	-601.36316	27.83408	167.89745	-723.98676	66.39292	219.38902	-675.64398	51.42693	161.44449	-794.47119	36.97138	175.23979	-767.31378	284.84888	874.15906	-666.48364	217.58351	796.08582	-759.32684	276.13187	741.37421	-782.68787	255.65898	637.06482	-742.95746	142.79988	573.60846	-772.33313	249.07703	572.49896	-717.40704	203.90675	537.23352	-801.78168	262.80612	495.21716	-766.60974	229.23288	204.60219	-652.14008	291.59433	156.79312	-615.02441	297.16632	158.50615	-552.96637	242.05058	165.04251	-588.97021	207.19244	173.29152	-717.53058	151.87173	219.92787	-675.62415	167.55971	159.32710	-796.16931	182.25957	183.67744	-528.08807	303.73822	146.35632	-517.91217	-72.96934	143.10612	-875.88190	-78.66636	141.12566	-882.52936	296.17584	144.69083	
128	2.540	-265.46365	126.96293	1653.81482	-412.62619	-65.70190	1396.35986	-429.89340	289.95013	1392.81177	-479.88995	108.43077	1194.88879	-677.31219	-7.20628	1023.99738	-675.42401	237.40430	1039.99060	-862.96960	94.68226	1095.77661	-758.02094	-73.43875	872.94025	-672.85760	-10.08468	805.81525	-763.75067	-65.36247	755.10718	-766.15881	-37.41104	613.39044	-747.73126	72.02502	570.74078	-768.13751	-34.94807	567.24255	-712.98114	13.33617	524.71222	-800.91248	-47.84987	483.48679	-762.21075	-22.68258	205.71799	-648.49146	-68.45061	160.74480	-605.86615	-72.76268	157.65250	-549.49927	-22.49307	162.60358	-601.43018	27.79277	167.86555	-724.04346	66.38132	219.41425	-675.67053	51.39559	161.47981	-794.52100	36.74791	175.15015	-769.08948	284.66132	874.09833	-668.17175	217.43903	796.05048	-760.75403	276.05637	741.23792	-783.87244	255.57886	636.87988	-744.01868	142.88583	573.36853	-773.31268	249.01527	572.37048	-718.33716	203.84473	537.32050	-802.61572	262.84705	495.19492	-766.65442	229.23425	204.58020	-652.15302	291.62277	156.77409	-615.03076	297.10660	158.50609	-552.99756	242.03474	165.08604	-589.00317	207.12982	173.28662	-717.63245	151.86227	219.90636	-675.66675	167.64104	159.43288	-796.18890	182.24449	183.64066	-528.10101	303.76645	146.34216	-517.93958	-72.98022	143.10310	-875.87195	-78.64133	141.12947	-882.58209	296.19550	144.73340	
129	2.560	-260.64392	127.27986	1647.48926	-409.28094	-65.60379	1391.17200	-426.51263	289.91953	1387.79004	-479.13477	108.36481	1190.54053	-678.57257	-7.32557	1023.14618	-676.87555	237.50554	1039.24377	-863.93799	94.36240	1096.14905	-759.30688	-73.40034	872.54590	-674.05743	-9.98626	805.75720	-764.63934	-65.47458	754.89038	-766.64532	-37.61603	613.26093	-748.63013	71.91345	570.60913	-768.68188	-35.03444	567.08527	-713.58972	13.30673	524.66406	-801.38635	-48.07852	483.39072	-762.22937	-22.79461	205.68001	-648.48022	-68.46486	160.75142	-605.74908	-72.75697	157.70819	-549.55334	-22.45964	162.61922	-601.48169	27.75710	167.81673	-724.11371	66.34685	219.44724	-675.68323	51.35175	161.51221	-794.58466	36.47949	175.06470	-770.98517	284.53583	874.05359	-669.89502	217.42046	796.08008	-762.31561	275.88647	741.06012	-785.13458	255.56139	636.66608	-745.02643	143.01013	573.19073	-774.32153	248.92062	572.26080	-719.22278	203.79108	537.41626	-803.46967	262.84265	495.15814	-766.70374	229.26122	204.55273	-652.16351	291.64371	156.76457	-615.03455	297.06363	158.50104	-553.04468	242.04434	165.12086	-589.11890	207.08412	173.29822	-717.72131	151.87035	219.89223	-675.73181	167.69812	159.58382	-796.22198	182.23253	183.61862	-528.10968	303.81424	146.34396	-517.93689	-72.97503	143.13530	-875.85217	-78.61324	141.12061	-882.60107	296.19965	144.75439	
